<svg width="356" height="344" viewBox="0 0 356 344" fill="none" xmlns="http://www.w3.org/2000/svg">
<path d="M300.023 252.267H285.783V81.0074C285.783 64.1594 271.598 50.4533 254.163 50.4533H99.3465C84.3696 50.4533 72.1826 62.2296 72.1826 76.7017V91.7333C72.1826 94.2663 74.3079 96.32 76.9292 96.32H114.903V258.249C114.903 278.703 128.876 293.547 148.129 293.547H277.344C292.467 293.547 304.769 281.659 304.769 267.046V256.853C304.769 254.32 302.644 252.267 300.023 252.267ZM81.6759 87.1467V76.7017C81.6759 67.4297 89.3762 59.8973 99.2303 59.6691C108.753 60.1025 114.903 67.2497 114.903 77.9733V87.1467H81.6759ZM167.116 263.733C167.116 274.698 158.25 283.751 146.931 284.342C146.916 284.342 146.901 284.345 146.884 284.345C133.581 283.727 124.396 273.169 124.396 258.249V77.9733C124.396 70.6691 122.091 64.383 118.218 59.6267H254.163C266.363 59.6267 276.289 69.2185 276.289 81.0074V252.267H171.863C169.241 252.267 167.116 254.32 167.116 256.853V263.733ZM295.276 267.046C295.276 276.6 287.231 284.373 277.344 284.373H168.025C173.351 279.005 176.609 271.72 176.609 263.733V261.44H295.276V267.046Z" fill="#393E46"/>
<path d="M72.7569 210.432C70.9033 208.641 67.8987 208.641 66.0451 210.432L62.6892 213.674L59.3333 210.432C57.4797 208.641 54.4751 208.641 52.6215 210.432C50.768 212.223 50.768 215.126 52.6215 216.917L55.9774 220.16L52.6215 223.403C50.768 225.194 50.768 228.097 52.6215 229.888C53.5483 230.784 54.7635 231.232 55.9774 231.232C57.1914 231.232 58.4065 230.784 59.3333 229.888L62.6892 226.646L66.0451 229.888C66.9719 230.784 68.187 231.232 69.401 231.232C70.615 231.232 71.8301 230.784 72.7569 229.888C74.6105 228.097 74.6105 225.194 72.7569 223.403L69.401 220.16L72.7569 216.917C74.6117 215.125 74.6117 212.223 72.7569 210.432Z" fill="#393E46"/>
<path d="M95.9159 210.987C98.5374 210.987 100.663 208.933 100.663 206.4C100.663 203.867 98.5374 201.813 95.9159 201.813C93.2944 201.813 91.1692 203.867 91.1692 206.4C91.1692 208.933 93.2944 210.987 95.9159 210.987Z" fill="#393E46"/>
<path d="M81.6759 160.533C84.2974 160.533 86.4226 158.48 86.4226 155.947C86.4226 153.414 84.2974 151.36 81.6759 151.36C79.0544 151.36 76.9292 153.414 76.9292 155.947C76.9292 158.48 79.0544 160.533 81.6759 160.533Z" fill="#393E46"/>
</svg>
