<svg width="333" height="353" viewBox="0 0 333 353" fill="none" xmlns="http://www.w3.org/2000/svg">
<g filter="url(#filter0_d)">
<rect x="24" y="20" width="222" height="302" rx="12" fill="white"/>
<rect x="24.5" y="20.5" width="221" height="301" rx="11.5" stroke="black" stroke-opacity="0.15"/>
</g>
<rect x="65" y="259" width="100" height="7" rx="3.5" fill="#393E46"/>
<rect x="65" y="195" width="120" height="7" rx="3.5" fill="#393E46"/>
<rect x="65" y="138" width="138" height="7" rx="3.5" fill="#393E46"/>
<rect x="65" y="81" width="113" height="7" rx="3.5" fill="#393E46"/>
<g filter="url(#filter1_d)">
<path d="M245.031 306.371C245.031 308.541 246.931 310.297 249.279 310.297C251.627 310.297 253.527 308.541 253.527 306.371V262.225L249.652 255.396L245.031 264.468V306.371Z" fill="#5F1854"/>
<path d="M304.504 290.668C304.504 292.838 306.404 294.594 308.752 294.594C311.1 294.594 313 292.838 313 290.668V246.521L308.964 239.736L304.504 248.765V290.668Z" fill="#5F1854"/>
<path d="M236.535 235.707C236.535 246.542 227.02 255.336 215.295 255.336C212.916 255.336 211.047 253.608 211.047 251.41C211.047 249.211 212.916 247.484 215.295 247.484C222.347 247.484 228.039 242.224 228.039 235.707C228.039 231.938 226.17 228.483 222.856 226.206C216.06 221.652 208.3 215.816 202.268 208.828V271.039C202.268 273.237 200.399 274.965 198.02 274.965C195.64 274.965 193.771 273.237 193.771 271.039V195.926C193.771 194.198 194.961 192.706 196.745 192.157C197.17 192.079 197.595 192 198.02 192C199.379 192 200.738 192.628 201.588 193.727L206.43 200.558C212.038 208.253 220.223 214.665 227.869 219.847C233.307 223.537 236.535 229.504 236.535 235.707Z" fill="#393E46"/>
<path d="M236.535 235.707C236.535 246.542 227.02 255.336 215.295 255.336C212.916 255.336 211.047 253.608 211.047 251.41C211.047 249.211 212.916 247.484 215.295 247.484C222.347 247.484 228.039 242.224 228.039 235.707C228.039 231.938 226.17 228.483 222.856 226.206C216.06 221.652 208.3 215.816 202.268 208.828V271.039C202.268 273.237 200.399 274.965 198.02 274.965V192C199.379 192 200.738 192.628 201.588 193.727L206.43 200.558C212.038 208.253 220.223 214.665 227.869 219.847C233.307 223.537 236.535 229.504 236.535 235.707Z" fill="#393E46"/>
<path d="M236.535 326C227.164 326 219.543 318.957 219.543 310.297C219.543 301.636 227.164 294.594 236.535 294.594C245.907 294.594 253.527 301.636 253.527 310.297C253.527 318.957 245.907 326 236.535 326Z" fill="#5F1854"/>
<path d="M198.02 260.754C194.961 257.456 190.373 255.336 185.275 255.336C175.93 255.336 168 262.402 168 271.039C168 279.676 175.93 286.742 185.275 286.742C190.373 286.742 194.961 284.622 198.02 281.325C200.738 278.576 202.268 274.965 202.268 271.039C202.268 267.113 200.738 263.501 198.02 260.754Z" fill="#393E46"/>
<path d="M296.008 310.297C286.636 310.297 279.016 303.254 279.016 294.594C279.016 285.933 286.636 278.891 296.008 278.891C305.379 278.891 313 285.933 313 294.594C313 303.254 305.379 310.297 296.008 310.297Z" fill="#5F1854"/>
<path d="M202.268 271.039C202.268 274.965 200.738 278.576 198.02 281.325V260.754C200.738 263.501 202.268 267.113 202.268 271.039Z" fill="#393E46"/>
<path d="M311.301 224.715C310.281 224.008 308.837 223.772 307.562 224.086L279.016 231.624L248.09 239.789C246.306 240.26 245.031 241.831 245.031 243.558V264.443L253.527 262.245L279.016 255.492L304.504 248.74L313 246.542V227.855C313 226.599 312.405 225.5 311.301 224.715Z" fill="#5F1854"/>
<path d="M313 227.855V246.542L304.504 248.74L279.016 255.493V231.624L307.562 224.086C308.837 223.773 310.281 224.008 311.301 224.715C312.405 225.5 313 226.599 313 227.855Z" fill="#5F1854"/>
</g>
<defs>
<filter id="filter0_d" x="0" y="0" width="270" height="350" filterUnits="userSpaceOnUse" color-interpolation-filters="sRGB">
<feFlood flood-opacity="0" result="BackgroundImageFix"/>
<feColorMatrix in="SourceAlpha" type="matrix" values="0 0 0 0 0 0 0 0 0 0 0 0 0 0 0 0 0 0 127 0"/>
<feOffset dy="4"/>
<feGaussianBlur stdDeviation="12"/>
<feColorMatrix type="matrix" values="0 0 0 0 0 0 0 0 0 0 0 0 0 0 0 0 0 0 0.1 0"/>
<feBlend mode="normal" in2="BackgroundImageFix" result="effect1_dropShadow"/>
<feBlend mode="normal" in="SourceGraphic" in2="effect1_dropShadow" result="shape"/>
</filter>
<filter id="filter1_d" x="148" y="179" width="185" height="174" filterUnits="userSpaceOnUse" color-interpolation-filters="sRGB">
<feFlood flood-opacity="0" result="BackgroundImageFix"/>
<feColorMatrix in="SourceAlpha" type="matrix" values="0 0 0 0 0 0 0 0 0 0 0 0 0 0 0 0 0 0 127 0"/>
<feOffset dy="7"/>
<feGaussianBlur stdDeviation="10"/>
<feColorMatrix type="matrix" values="0 0 0 0 0 0 0 0 0 0 0 0 0 0 0 0 0 0 0.25 0"/>
<feBlend mode="normal" in2="BackgroundImageFix" result="effect1_dropShadow"/>
<feBlend mode="normal" in="SourceGraphic" in2="effect1_dropShadow" result="shape"/>
</filter>
</defs>
</svg>
