<svg width="353" height="364" viewBox="0 0 353 364" fill="none" xmlns="http://www.w3.org/2000/svg">
<g filter="url(#filter0_d)">
<g filter="url(#filter1_d)">
<rect x="24" y="20" width="222" height="302" rx="12" fill="white"/>
<rect x="24.5" y="20.5" width="221" height="301" rx="11.5" stroke="black" stroke-opacity="0.15"/>
</g>
<rect x="65" y="259" width="100" height="7" rx="3.5" fill="#393E46"/>
<rect x="65" y="195" width="120" height="7" rx="3.5" fill="#393E46"/>
<rect x="65" y="138" width="138" height="7" rx="3.5" fill="#393E46"/>
<rect x="65" y="81" width="113" height="7" rx="3.5" fill="#393E46"/>
<g filter="url(#filter2_d)">
<g clip-path="url(#clip0)">
<path d="M303.104 263.078L223.118 216.306C219.424 214.144 215.702 213 212.608 213C206.627 213 202.928 217.1 202.928 223.963V325.053C202.928 331.908 206.623 336 212.59 336C215.688 336 219.35 334.855 223.052 332.687L303.076 285.916C308.222 282.903 311.072 278.849 311.072 274.495C311.074 270.144 308.256 266.09 303.104 263.078Z" fill="#393E46"/>
</g>
</g>
</g>
<defs>
<filter id="filter0_d" x="0" y="0" width="353" height="364" filterUnits="userSpaceOnUse" color-interpolation-filters="sRGB">
<feFlood flood-opacity="0" result="BackgroundImageFix"/>
<feColorMatrix in="SourceAlpha" type="matrix" values="0 0 0 0 0 0 0 0 0 0 0 0 0 0 0 0 0 0 127 0"/>
<feOffset dy="4"/>
<feGaussianBlur stdDeviation="12"/>
<feColorMatrix type="matrix" values="0 0 0 0 0 0 0 0 0 0 0 0 0 0 0 0 0 0 0.25 0"/>
<feBlend mode="normal" in2="BackgroundImageFix" result="effect1_dropShadow"/>
<feBlend mode="normal" in="SourceGraphic" in2="effect1_dropShadow" result="shape"/>
</filter>
<filter id="filter1_d" x="0" y="0" width="270" height="350" filterUnits="userSpaceOnUse" color-interpolation-filters="sRGB">
<feFlood flood-opacity="0" result="BackgroundImageFix"/>
<feColorMatrix in="SourceAlpha" type="matrix" values="0 0 0 0 0 0 0 0 0 0 0 0 0 0 0 0 0 0 127 0"/>
<feOffset dy="4"/>
<feGaussianBlur stdDeviation="12"/>
<feColorMatrix type="matrix" values="0 0 0 0 0 0 0 0 0 0 0 0 0 0 0 0 0 0 0.1 0"/>
<feBlend mode="normal" in2="BackgroundImageFix" result="effect1_dropShadow"/>
<feBlend mode="normal" in="SourceGraphic" in2="effect1_dropShadow" result="shape"/>
</filter>
<filter id="filter2_d" x="161" y="193" width="192" height="171" filterUnits="userSpaceOnUse" color-interpolation-filters="sRGB">
<feFlood flood-opacity="0" result="BackgroundImageFix"/>
<feColorMatrix in="SourceAlpha" type="matrix" values="0 0 0 0 0 0 0 0 0 0 0 0 0 0 0 0 0 0 127 0"/>
<feOffset dy="4"/>
<feGaussianBlur stdDeviation="12"/>
<feColorMatrix type="matrix" values="0 0 0 0 0 0 0 0 0 0 0 0 0 0 0 0 0 0 0.25 0"/>
<feBlend mode="normal" in2="BackgroundImageFix" result="effect1_dropShadow"/>
<feBlend mode="normal" in="SourceGraphic" in2="effect1_dropShadow" result="shape"/>
</filter>
<clipPath id="clip0">
<rect x="185" y="213" width="144" height="123" fill="white"/>
</clipPath>
</defs>
</svg>
